<?xml version="1.0" encoding="UTF-8" standalone="no"?>
<!DOCTYPE svg PUBLIC "-//W3C//DTD SVG 1.1//EN" "http://www.w3.org/Graphics/SVG/1.1/DTD/svg11.dtd">
<svg width="100%" height="100%" viewBox="0 0 600 600" version="1.1" xmlns="http://www.w3.org/2000/svg" xmlns:xlink="http://www.w3.org/1999/xlink" xml:space="preserve" xmlns:serif="http://www.serif.com/" style="fill-rule:evenodd;clip-rule:evenodd;stroke-linejoin:round;stroke-miterlimit:2;">
    <g transform="matrix(1,0,0,1,-212,5.68434e-14)">
        <g transform="matrix(2.54975,0,0,2.54975,-792.452,-464.924)">
            <g transform="matrix(0.742835,0,0,0.742835,131.269,77.1496)">
                <path d="M670.392,220.804C670.392,177.095 634.905,141.608 591.196,141.608L432.804,141.608C389.095,141.608 353.608,177.095 353.608,220.804L353.608,379.196C353.608,422.905 389.095,458.392 432.804,458.392L591.196,458.392C634.905,458.392 670.392,422.905 670.392,379.196L670.392,220.804ZM522.096,259.42L522.957,259.42C526.278,251.365 531.134,245.407 537.526,241.544C543.917,237.682 551.596,235.751 560.561,235.751C568.53,235.751 575.751,237.328 582.226,240.482C588.701,243.637 594.221,248.119 598.787,253.93C603.352,259.74 606.838,266.796 609.246,275.097C611.653,283.398 612.857,292.695 612.857,302.988C612.857,313.282 611.653,322.579 609.246,330.88C606.838,339.18 603.352,346.236 598.787,352.047C594.221,357.858 588.701,362.34 582.226,365.495C575.751,368.649 568.53,370.226 560.561,370.226C543.129,370.226 530.594,362.336 522.957,346.557L521.961,346.557L521.961,417.043L501.904,417.043L501.904,346.557L501.043,346.557C493.24,362.336 480.705,370.226 463.439,370.226C455.47,370.226 448.249,368.649 441.774,365.495C435.299,362.34 429.779,357.858 425.213,352.047C420.648,346.236 417.162,339.18 414.754,330.88C412.347,322.579 411.143,313.282 411.143,302.988C411.143,292.695 412.347,283.398 414.754,275.097C417.162,266.796 420.648,259.74 425.213,253.93C429.779,248.119 435.299,243.637 441.774,240.482C448.249,237.328 455.47,235.751 463.439,235.751C472.404,235.751 480.083,237.682 486.474,241.544C492.866,245.407 497.722,251.365 501.043,259.42L502.039,259.42L502.039,182.957L522.096,182.957L522.096,259.42ZM522.096,275.853C522.402,273.218 523.229,270.708 524.576,268.323C526.319,265.236 528.685,262.608 531.673,260.439C534.662,258.271 538.19,256.561 542.257,255.309C546.325,254.057 550.6,253.432 555.082,253.432C566.371,253.432 575.253,256.977 581.728,264.068C588.203,271.159 591.44,280.462 591.44,291.977L591.44,314C591.44,325.515 588.203,334.818 581.728,341.909C575.253,349 566.371,352.545 555.082,352.545C550.6,352.545 546.325,351.961 542.257,350.792C538.19,349.623 534.662,347.913 531.673,345.662C528.685,343.41 526.319,340.657 524.576,337.403C523.005,334.47 522.142,331.164 521.987,327.486C522.686,322.4 525.662,318.094 530.915,314.568C536.975,310.501 545.401,308.467 556.192,308.467L567.896,308.467L567.896,288.545L560.176,288.545C549.717,288.545 541.499,290.952 535.522,295.767C529.546,300.581 525.395,306.06 523.071,312.202L521.961,312.202L521.961,311.455L522.096,311.455L522.096,275.853ZM501.904,329.038C501.598,332.1 500.771,334.888 499.424,337.403C497.681,340.657 495.315,343.41 492.327,345.662C489.338,347.913 485.81,349.623 481.743,350.792C477.675,351.961 473.4,352.545 468.918,352.545C457.629,352.545 448.747,349 442.272,341.909C435.797,334.818 432.56,325.515 432.56,314L432.56,291.977C432.56,280.462 435.797,271.159 442.272,264.068C448.747,256.977 457.629,253.432 468.918,253.432C473.4,253.432 477.675,254.057 481.743,255.309C485.81,256.561 489.338,258.271 492.327,260.439C495.315,262.608 497.681,265.236 499.424,268.323C500.506,270.239 501.252,272.236 501.663,274.313C500.566,278.623 497.707,282.329 493.085,285.432C487.025,289.499 478.599,291.533 467.808,291.533L456.104,291.533L456.104,311.455L463.824,311.455C474.283,311.455 482.501,309.048 488.478,304.233C494.454,299.419 498.605,293.94 500.929,287.798L502.039,287.798L502.039,288.545L501.904,288.545L501.904,329.038Z"/>
            </g>
        </g>
    </g>
</svg>
